%TF.GenerationSoftware,KiCad,Pcbnew,9.0.6*%
%TF.CreationDate,2025-12-14T15:20:03+05:30*%
%TF.ProjectId,Kicad-Hardware-Design,4b696361-642d-4486-9172-64776172652d,rev?*%
%TF.SameCoordinates,Original*%
%TF.FileFunction,Copper,L2,Bot*%
%TF.FilePolarity,Positive*%
%FSLAX46Y46*%
G04 Gerber Fmt 4.6, Leading zero omitted, Abs format (unit mm)*
G04 Created by KiCad (PCBNEW 9.0.6) date 2025-12-14 15:20:03*
%MOMM*%
%LPD*%
G01*
G04 APERTURE LIST*
G04 Aperture macros list*
%AMRoundRect*
0 Rectangle with rounded corners*
0 $1 Rounding radius*
0 $2 $3 $4 $5 $6 $7 $8 $9 X,Y pos of 4 corners*
0 Add a 4 corners polygon primitive as box body*
4,1,4,$2,$3,$4,$5,$6,$7,$8,$9,$2,$3,0*
0 Add four circle primitives for the rounded corners*
1,1,$1+$1,$2,$3*
1,1,$1+$1,$4,$5*
1,1,$1+$1,$6,$7*
1,1,$1+$1,$8,$9*
0 Add four rect primitives between the rounded corners*
20,1,$1+$1,$2,$3,$4,$5,0*
20,1,$1+$1,$4,$5,$6,$7,0*
20,1,$1+$1,$6,$7,$8,$9,0*
20,1,$1+$1,$8,$9,$2,$3,0*%
G04 Aperture macros list end*
%TA.AperFunction,ComponentPad*%
%ADD10RoundRect,0.249999X-0.850001X-0.850001X0.850001X-0.850001X0.850001X0.850001X-0.850001X0.850001X0*%
%TD*%
%TA.AperFunction,ComponentPad*%
%ADD11C,2.200000*%
%TD*%
%TA.AperFunction,ComponentPad*%
%ADD12R,1.800000X1.800000*%
%TD*%
%TA.AperFunction,ComponentPad*%
%ADD13C,1.800000*%
%TD*%
%TA.AperFunction,ComponentPad*%
%ADD14RoundRect,0.250000X1.050000X-1.050000X1.050000X1.050000X-1.050000X1.050000X-1.050000X-1.050000X0*%
%TD*%
%TA.AperFunction,ComponentPad*%
%ADD15C,2.600000*%
%TD*%
%TA.AperFunction,ComponentPad*%
%ADD16RoundRect,0.250000X-1.050000X1.050000X-1.050000X-1.050000X1.050000X-1.050000X1.050000X1.050000X0*%
%TD*%
%TA.AperFunction,ComponentPad*%
%ADD17RoundRect,0.249999X0.850001X0.850001X-0.850001X0.850001X-0.850001X-0.850001X0.850001X-0.850001X0*%
%TD*%
%TA.AperFunction,ComponentPad*%
%ADD18RoundRect,0.250001X0.949999X-0.949999X0.949999X0.949999X-0.949999X0.949999X-0.949999X-0.949999X0*%
%TD*%
%TA.AperFunction,ComponentPad*%
%ADD19C,2.400000*%
%TD*%
%TA.AperFunction,ComponentPad*%
%ADD20R,2.000000X1.905000*%
%TD*%
%TA.AperFunction,ComponentPad*%
%ADD21O,2.000000X1.905000*%
%TD*%
%TA.AperFunction,ComponentPad*%
%ADD22C,1.600000*%
%TD*%
%TA.AperFunction,ComponentPad*%
%ADD23RoundRect,0.250000X-0.550000X0.550000X-0.550000X-0.550000X0.550000X-0.550000X0.550000X0.550000X0*%
%TD*%
%TA.AperFunction,Conductor*%
%ADD24C,0.200000*%
%TD*%
G04 APERTURE END LIST*
D10*
%TO.P,D2,1,K*%
%TO.N,Net-(D1-A)*%
X59840000Y-60660000D03*
D11*
%TO.P,D2,2,A*%
%TO.N,GND*%
X70000000Y-60660000D03*
%TD*%
D12*
%TO.P,D5,1,K*%
%TO.N,GND*%
X107500000Y-71407500D03*
D13*
%TO.P,D5,2,A*%
%TO.N,Net-(D5-A)*%
X107500000Y-73947500D03*
%TD*%
D14*
%TO.P,J2,1,Pin_1*%
%TO.N,Net-(J2-Pin_1)*%
X126672500Y-67500000D03*
D15*
%TO.P,J2,2,Pin_2*%
%TO.N,GND*%
X126672500Y-62500000D03*
%TD*%
D16*
%TO.P,J1,1,Pin_1*%
%TO.N,Net-(D3-A)*%
X51327500Y-62000000D03*
D15*
%TO.P,J1,2,Pin_2*%
%TO.N,Net-(D1-A)*%
X51327500Y-67000000D03*
%TD*%
D17*
%TO.P,D3,1,K*%
%TO.N,Net-(D1-K)*%
X70080000Y-68000000D03*
D11*
%TO.P,D3,2,A*%
%TO.N,Net-(D3-A)*%
X59920000Y-68000000D03*
%TD*%
D18*
%TO.P,C1,1*%
%TO.N,Net-(D1-K)*%
X78500000Y-67000000D03*
D19*
%TO.P,C1,2*%
%TO.N,GND*%
X78500000Y-62000000D03*
%TD*%
%TO.P,R1,1*%
%TO.N,Net-(D5-A)*%
X116000000Y-74660000D03*
%TO.P,R1,2*%
%TO.N,Net-(J2-Pin_1)*%
X116000000Y-54340000D03*
%TD*%
D20*
%TO.P,U1,1,IN*%
%TO.N,Net-(D1-K)*%
X98500000Y-66580000D03*
D21*
%TO.P,U1,2,GND*%
%TO.N,GND*%
X98500000Y-64040000D03*
%TO.P,U1,3,OUT*%
%TO.N,Net-(J2-Pin_1)*%
X98500000Y-61500000D03*
%TD*%
D10*
%TO.P,D4,1,K*%
%TO.N,Net-(D3-A)*%
X59920000Y-74500000D03*
D11*
%TO.P,D4,2,A*%
%TO.N,GND*%
X70080000Y-74500000D03*
%TD*%
D22*
%TO.P,C2,1*%
%TO.N,Net-(D1-K)*%
X90000000Y-67000000D03*
%TO.P,C2,2*%
%TO.N,GND*%
X90000000Y-62000000D03*
%TD*%
D17*
%TO.P,D1,1,K*%
%TO.N,Net-(D1-K)*%
X70160000Y-54000000D03*
D11*
%TO.P,D1,2,A*%
%TO.N,Net-(D1-A)*%
X60000000Y-54000000D03*
%TD*%
D23*
%TO.P,C3,1*%
%TO.N,Net-(J2-Pin_1)*%
X107460000Y-59960000D03*
D22*
%TO.P,C3,2*%
%TO.N,GND*%
X107460000Y-64960000D03*
%TD*%
D24*
%TO.N,GND*%
X90000000Y-62000000D02*
X78500000Y-62000000D01*
X65500000Y-62000000D02*
X64500000Y-63000000D01*
X116500000Y-62500000D02*
X112500000Y-66500000D01*
X126672500Y-62500000D02*
X116500000Y-62500000D01*
X70000000Y-60660000D02*
X67340000Y-60660000D01*
X67000000Y-74500000D02*
X70080000Y-74500000D01*
X96460000Y-62000000D02*
X98500000Y-64040000D01*
X98500000Y-64040000D02*
X106540000Y-64040000D01*
X107460000Y-71367500D02*
X107500000Y-71407500D01*
X64500000Y-72500000D02*
X65000000Y-72500000D01*
X112500000Y-67000000D02*
X108092500Y-71407500D01*
X67340000Y-60660000D02*
X66000000Y-62000000D01*
X66000000Y-62000000D02*
X65500000Y-62000000D01*
X70000000Y-60660000D02*
X77160000Y-60660000D01*
X106540000Y-64040000D02*
X107460000Y-64960000D01*
X77160000Y-60660000D02*
X78500000Y-62000000D01*
X64500000Y-63000000D02*
X64500000Y-72500000D01*
X65000000Y-72500000D02*
X67000000Y-74500000D01*
X107500000Y-65000000D02*
X107460000Y-64960000D01*
X90000000Y-62000000D02*
X96460000Y-62000000D01*
X108092500Y-71407500D02*
X107500000Y-71407500D01*
X107500000Y-71407500D02*
X107500000Y-65000000D01*
X112500000Y-66500000D02*
X112500000Y-67000000D01*
%TO.N,Net-(D1-K)*%
X63000000Y-58000000D02*
X63000000Y-72500000D01*
X71000000Y-77000000D02*
X72500000Y-75500000D01*
X78500000Y-67000000D02*
X90000000Y-67000000D01*
X67500000Y-77000000D02*
X71000000Y-77000000D01*
X70160000Y-54000000D02*
X67000000Y-54000000D01*
X90500000Y-67000000D02*
X90920000Y-66580000D01*
X75920000Y-67000000D02*
X78500000Y-67000000D01*
X72500000Y-75500000D02*
X72500000Y-70420000D01*
X63000000Y-72500000D02*
X67500000Y-77000000D01*
X72500000Y-70420000D02*
X70080000Y-68000000D01*
X72500000Y-70420000D02*
X75920000Y-67000000D01*
X90000000Y-67000000D02*
X90500000Y-67000000D01*
X90920000Y-66580000D02*
X98500000Y-66580000D01*
X67000000Y-54000000D02*
X63000000Y-58000000D01*
%TO.N,Net-(J2-Pin_1)*%
X128000000Y-67500000D02*
X130000000Y-65500000D01*
X126672500Y-67500000D02*
X128000000Y-67500000D01*
X122160000Y-60500000D02*
X116000000Y-54340000D01*
X98500000Y-61500000D02*
X105920000Y-61500000D01*
X129000000Y-60500000D02*
X122160000Y-60500000D01*
X105920000Y-61500000D02*
X107460000Y-59960000D01*
X130000000Y-61500000D02*
X129000000Y-60500000D01*
X116000000Y-54340000D02*
X110380000Y-59960000D01*
X110380000Y-59960000D02*
X107460000Y-59960000D01*
X130000000Y-65500000D02*
X130000000Y-61500000D01*
%TO.N,Net-(D1-A)*%
X49000000Y-64672500D02*
X51327500Y-67000000D01*
X59840000Y-60660000D02*
X59840000Y-54160000D01*
X49000000Y-60500000D02*
X49000000Y-64672500D01*
X60000000Y-60500000D02*
X59840000Y-60660000D01*
X50000000Y-59500000D02*
X49000000Y-60500000D01*
X59840000Y-54160000D02*
X60000000Y-54000000D01*
X59840000Y-60660000D02*
X58680000Y-59500000D01*
X58680000Y-59500000D02*
X50000000Y-59500000D01*
%TO.N,Net-(D3-A)*%
X59920000Y-68000000D02*
X59920000Y-74500000D01*
X59920000Y-68000000D02*
X57327500Y-68000000D01*
X57327500Y-68000000D02*
X51327500Y-62000000D01*
%TO.N,Net-(D5-A)*%
X115287500Y-73947500D02*
X116000000Y-74660000D01*
X107500000Y-73947500D02*
X115287500Y-73947500D01*
%TD*%
M02*
