%TF.GenerationSoftware,KiCad,Pcbnew,9.0.6*%
%TF.CreationDate,2025-12-14T15:20:03+05:30*%
%TF.ProjectId,Kicad-Hardware-Design,4b696361-642d-4486-9172-64776172652d,rev?*%
%TF.SameCoordinates,Original*%
%TF.FileFunction,Legend,Top*%
%TF.FilePolarity,Positive*%
%FSLAX46Y46*%
G04 Gerber Fmt 4.6, Leading zero omitted, Abs format (unit mm)*
G04 Created by KiCad (PCBNEW 9.0.6) date 2025-12-14 15:20:03*
%MOMM*%
%LPD*%
G01*
G04 APERTURE LIST*
%ADD10C,0.150000*%
%ADD11C,0.120000*%
G04 APERTURE END LIST*
D10*
X64181905Y-58644819D02*
X64181905Y-57644819D01*
X64181905Y-57644819D02*
X64420000Y-57644819D01*
X64420000Y-57644819D02*
X64562857Y-57692438D01*
X64562857Y-57692438D02*
X64658095Y-57787676D01*
X64658095Y-57787676D02*
X64705714Y-57882914D01*
X64705714Y-57882914D02*
X64753333Y-58073390D01*
X64753333Y-58073390D02*
X64753333Y-58216247D01*
X64753333Y-58216247D02*
X64705714Y-58406723D01*
X64705714Y-58406723D02*
X64658095Y-58501961D01*
X64658095Y-58501961D02*
X64562857Y-58597200D01*
X64562857Y-58597200D02*
X64420000Y-58644819D01*
X64420000Y-58644819D02*
X64181905Y-58644819D01*
X65134286Y-57740057D02*
X65181905Y-57692438D01*
X65181905Y-57692438D02*
X65277143Y-57644819D01*
X65277143Y-57644819D02*
X65515238Y-57644819D01*
X65515238Y-57644819D02*
X65610476Y-57692438D01*
X65610476Y-57692438D02*
X65658095Y-57740057D01*
X65658095Y-57740057D02*
X65705714Y-57835295D01*
X65705714Y-57835295D02*
X65705714Y-57930533D01*
X65705714Y-57930533D02*
X65658095Y-58073390D01*
X65658095Y-58073390D02*
X65086667Y-58644819D01*
X65086667Y-58644819D02*
X65705714Y-58644819D01*
X59578095Y-59014819D02*
X59578095Y-58014819D01*
X60149523Y-59014819D02*
X59720952Y-58443390D01*
X60149523Y-58014819D02*
X59578095Y-58586247D01*
X111964819Y-73415594D02*
X110964819Y-73415594D01*
X110964819Y-73415594D02*
X110964819Y-73177499D01*
X110964819Y-73177499D02*
X111012438Y-73034642D01*
X111012438Y-73034642D02*
X111107676Y-72939404D01*
X111107676Y-72939404D02*
X111202914Y-72891785D01*
X111202914Y-72891785D02*
X111393390Y-72844166D01*
X111393390Y-72844166D02*
X111536247Y-72844166D01*
X111536247Y-72844166D02*
X111726723Y-72891785D01*
X111726723Y-72891785D02*
X111821961Y-72939404D01*
X111821961Y-72939404D02*
X111917200Y-73034642D01*
X111917200Y-73034642D02*
X111964819Y-73177499D01*
X111964819Y-73177499D02*
X111964819Y-73415594D01*
X110964819Y-71939404D02*
X110964819Y-72415594D01*
X110964819Y-72415594D02*
X111441009Y-72463213D01*
X111441009Y-72463213D02*
X111393390Y-72415594D01*
X111393390Y-72415594D02*
X111345771Y-72320356D01*
X111345771Y-72320356D02*
X111345771Y-72082261D01*
X111345771Y-72082261D02*
X111393390Y-71987023D01*
X111393390Y-71987023D02*
X111441009Y-71939404D01*
X111441009Y-71939404D02*
X111536247Y-71891785D01*
X111536247Y-71891785D02*
X111774342Y-71891785D01*
X111774342Y-71891785D02*
X111869580Y-71939404D01*
X111869580Y-71939404D02*
X111917200Y-71987023D01*
X111917200Y-71987023D02*
X111964819Y-72082261D01*
X111964819Y-72082261D02*
X111964819Y-72320356D01*
X111964819Y-72320356D02*
X111917200Y-72415594D01*
X111917200Y-72415594D02*
X111869580Y-72463213D01*
X125666666Y-71504819D02*
X125333333Y-71028628D01*
X125095238Y-71504819D02*
X125095238Y-70504819D01*
X125095238Y-70504819D02*
X125476190Y-70504819D01*
X125476190Y-70504819D02*
X125571428Y-70552438D01*
X125571428Y-70552438D02*
X125619047Y-70600057D01*
X125619047Y-70600057D02*
X125666666Y-70695295D01*
X125666666Y-70695295D02*
X125666666Y-70838152D01*
X125666666Y-70838152D02*
X125619047Y-70933390D01*
X125619047Y-70933390D02*
X125571428Y-70981009D01*
X125571428Y-70981009D02*
X125476190Y-71028628D01*
X125476190Y-71028628D02*
X125095238Y-71028628D01*
X126095238Y-70981009D02*
X126428571Y-70981009D01*
X126571428Y-71504819D02*
X126095238Y-71504819D01*
X126095238Y-71504819D02*
X126095238Y-70504819D01*
X126095238Y-70504819D02*
X126571428Y-70504819D01*
X127333333Y-70981009D02*
X127000000Y-70981009D01*
X127000000Y-71504819D02*
X127000000Y-70504819D01*
X127000000Y-70504819D02*
X127476190Y-70504819D01*
X128000000Y-70504819D02*
X128000000Y-70742914D01*
X127761905Y-70647676D02*
X128000000Y-70742914D01*
X128000000Y-70742914D02*
X128238095Y-70647676D01*
X127857143Y-70933390D02*
X128000000Y-70742914D01*
X128000000Y-70742914D02*
X128142857Y-70933390D01*
X128761905Y-70504819D02*
X128761905Y-70742914D01*
X128523810Y-70647676D02*
X128761905Y-70742914D01*
X128761905Y-70742914D02*
X129000000Y-70647676D01*
X128619048Y-70933390D02*
X128761905Y-70742914D01*
X128761905Y-70742914D02*
X128904762Y-70933390D01*
X119807319Y-65333333D02*
X120521604Y-65333333D01*
X120521604Y-65333333D02*
X120664461Y-65380952D01*
X120664461Y-65380952D02*
X120759700Y-65476190D01*
X120759700Y-65476190D02*
X120807319Y-65619047D01*
X120807319Y-65619047D02*
X120807319Y-65714285D01*
X119902557Y-64904761D02*
X119854938Y-64857142D01*
X119854938Y-64857142D02*
X119807319Y-64761904D01*
X119807319Y-64761904D02*
X119807319Y-64523809D01*
X119807319Y-64523809D02*
X119854938Y-64428571D01*
X119854938Y-64428571D02*
X119902557Y-64380952D01*
X119902557Y-64380952D02*
X119997795Y-64333333D01*
X119997795Y-64333333D02*
X120093033Y-64333333D01*
X120093033Y-64333333D02*
X120235890Y-64380952D01*
X120235890Y-64380952D02*
X120807319Y-64952380D01*
X120807319Y-64952380D02*
X120807319Y-64333333D01*
X57102319Y-64833333D02*
X57816604Y-64833333D01*
X57816604Y-64833333D02*
X57959461Y-64880952D01*
X57959461Y-64880952D02*
X58054700Y-64976190D01*
X58054700Y-64976190D02*
X58102319Y-65119047D01*
X58102319Y-65119047D02*
X58102319Y-65214285D01*
X58102319Y-63833333D02*
X58102319Y-64404761D01*
X58102319Y-64119047D02*
X57102319Y-64119047D01*
X57102319Y-64119047D02*
X57245176Y-64214285D01*
X57245176Y-64214285D02*
X57340414Y-64309523D01*
X57340414Y-64309523D02*
X57388033Y-64404761D01*
X64261905Y-70924819D02*
X64261905Y-69924819D01*
X64261905Y-69924819D02*
X64500000Y-69924819D01*
X64500000Y-69924819D02*
X64642857Y-69972438D01*
X64642857Y-69972438D02*
X64738095Y-70067676D01*
X64738095Y-70067676D02*
X64785714Y-70162914D01*
X64785714Y-70162914D02*
X64833333Y-70353390D01*
X64833333Y-70353390D02*
X64833333Y-70496247D01*
X64833333Y-70496247D02*
X64785714Y-70686723D01*
X64785714Y-70686723D02*
X64738095Y-70781961D01*
X64738095Y-70781961D02*
X64642857Y-70877200D01*
X64642857Y-70877200D02*
X64500000Y-70924819D01*
X64500000Y-70924819D02*
X64261905Y-70924819D01*
X65166667Y-69924819D02*
X65785714Y-69924819D01*
X65785714Y-69924819D02*
X65452381Y-70305771D01*
X65452381Y-70305771D02*
X65595238Y-70305771D01*
X65595238Y-70305771D02*
X65690476Y-70353390D01*
X65690476Y-70353390D02*
X65738095Y-70401009D01*
X65738095Y-70401009D02*
X65785714Y-70496247D01*
X65785714Y-70496247D02*
X65785714Y-70734342D01*
X65785714Y-70734342D02*
X65738095Y-70829580D01*
X65738095Y-70829580D02*
X65690476Y-70877200D01*
X65690476Y-70877200D02*
X65595238Y-70924819D01*
X65595238Y-70924819D02*
X65309524Y-70924819D01*
X65309524Y-70924819D02*
X65214286Y-70877200D01*
X65214286Y-70877200D02*
X65166667Y-70829580D01*
X69818095Y-70554819D02*
X69818095Y-69554819D01*
X70389523Y-70554819D02*
X69960952Y-69983390D01*
X70389523Y-69554819D02*
X69818095Y-70126247D01*
X47166666Y-71504819D02*
X46833333Y-71028628D01*
X46595238Y-71504819D02*
X46595238Y-70504819D01*
X46595238Y-70504819D02*
X46976190Y-70504819D01*
X46976190Y-70504819D02*
X47071428Y-70552438D01*
X47071428Y-70552438D02*
X47119047Y-70600057D01*
X47119047Y-70600057D02*
X47166666Y-70695295D01*
X47166666Y-70695295D02*
X47166666Y-70838152D01*
X47166666Y-70838152D02*
X47119047Y-70933390D01*
X47119047Y-70933390D02*
X47071428Y-70981009D01*
X47071428Y-70981009D02*
X46976190Y-71028628D01*
X46976190Y-71028628D02*
X46595238Y-71028628D01*
X47595238Y-70981009D02*
X47928571Y-70981009D01*
X48071428Y-71504819D02*
X47595238Y-71504819D01*
X47595238Y-71504819D02*
X47595238Y-70504819D01*
X47595238Y-70504819D02*
X48071428Y-70504819D01*
X48833333Y-70981009D02*
X48500000Y-70981009D01*
X48500000Y-71504819D02*
X48500000Y-70504819D01*
X48500000Y-70504819D02*
X48976190Y-70504819D01*
X49500000Y-70504819D02*
X49500000Y-70742914D01*
X49261905Y-70647676D02*
X49500000Y-70742914D01*
X49500000Y-70742914D02*
X49738095Y-70647676D01*
X49357143Y-70933390D02*
X49500000Y-70742914D01*
X49500000Y-70742914D02*
X49642857Y-70933390D01*
X50261905Y-70504819D02*
X50261905Y-70742914D01*
X50023810Y-70647676D02*
X50261905Y-70742914D01*
X50261905Y-70742914D02*
X50500000Y-70647676D01*
X50119048Y-70933390D02*
X50261905Y-70742914D01*
X50261905Y-70742914D02*
X50404762Y-70933390D01*
X71359580Y-64666666D02*
X71407200Y-64714285D01*
X71407200Y-64714285D02*
X71454819Y-64857142D01*
X71454819Y-64857142D02*
X71454819Y-64952380D01*
X71454819Y-64952380D02*
X71407200Y-65095237D01*
X71407200Y-65095237D02*
X71311961Y-65190475D01*
X71311961Y-65190475D02*
X71216723Y-65238094D01*
X71216723Y-65238094D02*
X71026247Y-65285713D01*
X71026247Y-65285713D02*
X70883390Y-65285713D01*
X70883390Y-65285713D02*
X70692914Y-65238094D01*
X70692914Y-65238094D02*
X70597676Y-65190475D01*
X70597676Y-65190475D02*
X70502438Y-65095237D01*
X70502438Y-65095237D02*
X70454819Y-64952380D01*
X70454819Y-64952380D02*
X70454819Y-64857142D01*
X70454819Y-64857142D02*
X70502438Y-64714285D01*
X70502438Y-64714285D02*
X70550057Y-64666666D01*
X71454819Y-63714285D02*
X71454819Y-64285713D01*
X71454819Y-63999999D02*
X70454819Y-63999999D01*
X70454819Y-63999999D02*
X70597676Y-64095237D01*
X70597676Y-64095237D02*
X70692914Y-64190475D01*
X70692914Y-64190475D02*
X70740533Y-64285713D01*
X113534819Y-64666666D02*
X113058628Y-64999999D01*
X113534819Y-65238094D02*
X112534819Y-65238094D01*
X112534819Y-65238094D02*
X112534819Y-64857142D01*
X112534819Y-64857142D02*
X112582438Y-64761904D01*
X112582438Y-64761904D02*
X112630057Y-64714285D01*
X112630057Y-64714285D02*
X112725295Y-64666666D01*
X112725295Y-64666666D02*
X112868152Y-64666666D01*
X112868152Y-64666666D02*
X112963390Y-64714285D01*
X112963390Y-64714285D02*
X113011009Y-64761904D01*
X113011009Y-64761904D02*
X113058628Y-64857142D01*
X113058628Y-64857142D02*
X113058628Y-65238094D01*
X113534819Y-63714285D02*
X113534819Y-64285713D01*
X113534819Y-63999999D02*
X112534819Y-63999999D01*
X112534819Y-63999999D02*
X112677676Y-64095237D01*
X112677676Y-64095237D02*
X112772914Y-64190475D01*
X112772914Y-64190475D02*
X112820533Y-64285713D01*
X93854819Y-64801904D02*
X94664342Y-64801904D01*
X94664342Y-64801904D02*
X94759580Y-64754285D01*
X94759580Y-64754285D02*
X94807200Y-64706666D01*
X94807200Y-64706666D02*
X94854819Y-64611428D01*
X94854819Y-64611428D02*
X94854819Y-64420952D01*
X94854819Y-64420952D02*
X94807200Y-64325714D01*
X94807200Y-64325714D02*
X94759580Y-64278095D01*
X94759580Y-64278095D02*
X94664342Y-64230476D01*
X94664342Y-64230476D02*
X93854819Y-64230476D01*
X94854819Y-63230476D02*
X94854819Y-63801904D01*
X94854819Y-63516190D02*
X93854819Y-63516190D01*
X93854819Y-63516190D02*
X93997676Y-63611428D01*
X93997676Y-63611428D02*
X94092914Y-63706666D01*
X94092914Y-63706666D02*
X94140533Y-63801904D01*
X64261905Y-72484819D02*
X64261905Y-71484819D01*
X64261905Y-71484819D02*
X64500000Y-71484819D01*
X64500000Y-71484819D02*
X64642857Y-71532438D01*
X64642857Y-71532438D02*
X64738095Y-71627676D01*
X64738095Y-71627676D02*
X64785714Y-71722914D01*
X64785714Y-71722914D02*
X64833333Y-71913390D01*
X64833333Y-71913390D02*
X64833333Y-72056247D01*
X64833333Y-72056247D02*
X64785714Y-72246723D01*
X64785714Y-72246723D02*
X64738095Y-72341961D01*
X64738095Y-72341961D02*
X64642857Y-72437200D01*
X64642857Y-72437200D02*
X64500000Y-72484819D01*
X64500000Y-72484819D02*
X64261905Y-72484819D01*
X65690476Y-71818152D02*
X65690476Y-72484819D01*
X65452381Y-71437200D02*
X65214286Y-72151485D01*
X65214286Y-72151485D02*
X65833333Y-72151485D01*
X59658095Y-72854819D02*
X59658095Y-71854819D01*
X60229523Y-72854819D02*
X59800952Y-72283390D01*
X60229523Y-71854819D02*
X59658095Y-72426247D01*
X87859580Y-64666666D02*
X87907200Y-64714285D01*
X87907200Y-64714285D02*
X87954819Y-64857142D01*
X87954819Y-64857142D02*
X87954819Y-64952380D01*
X87954819Y-64952380D02*
X87907200Y-65095237D01*
X87907200Y-65095237D02*
X87811961Y-65190475D01*
X87811961Y-65190475D02*
X87716723Y-65238094D01*
X87716723Y-65238094D02*
X87526247Y-65285713D01*
X87526247Y-65285713D02*
X87383390Y-65285713D01*
X87383390Y-65285713D02*
X87192914Y-65238094D01*
X87192914Y-65238094D02*
X87097676Y-65190475D01*
X87097676Y-65190475D02*
X87002438Y-65095237D01*
X87002438Y-65095237D02*
X86954819Y-64952380D01*
X86954819Y-64952380D02*
X86954819Y-64857142D01*
X86954819Y-64857142D02*
X87002438Y-64714285D01*
X87002438Y-64714285D02*
X87050057Y-64666666D01*
X87050057Y-64285713D02*
X87002438Y-64238094D01*
X87002438Y-64238094D02*
X86954819Y-64142856D01*
X86954819Y-64142856D02*
X86954819Y-63904761D01*
X86954819Y-63904761D02*
X87002438Y-63809523D01*
X87002438Y-63809523D02*
X87050057Y-63761904D01*
X87050057Y-63761904D02*
X87145295Y-63714285D01*
X87145295Y-63714285D02*
X87240533Y-63714285D01*
X87240533Y-63714285D02*
X87383390Y-63761904D01*
X87383390Y-63761904D02*
X87954819Y-64333332D01*
X87954819Y-64333332D02*
X87954819Y-63714285D01*
X64341905Y-56924819D02*
X64341905Y-55924819D01*
X64341905Y-55924819D02*
X64580000Y-55924819D01*
X64580000Y-55924819D02*
X64722857Y-55972438D01*
X64722857Y-55972438D02*
X64818095Y-56067676D01*
X64818095Y-56067676D02*
X64865714Y-56162914D01*
X64865714Y-56162914D02*
X64913333Y-56353390D01*
X64913333Y-56353390D02*
X64913333Y-56496247D01*
X64913333Y-56496247D02*
X64865714Y-56686723D01*
X64865714Y-56686723D02*
X64818095Y-56781961D01*
X64818095Y-56781961D02*
X64722857Y-56877200D01*
X64722857Y-56877200D02*
X64580000Y-56924819D01*
X64580000Y-56924819D02*
X64341905Y-56924819D01*
X65865714Y-56924819D02*
X65294286Y-56924819D01*
X65580000Y-56924819D02*
X65580000Y-55924819D01*
X65580000Y-55924819D02*
X65484762Y-56067676D01*
X65484762Y-56067676D02*
X65389524Y-56162914D01*
X65389524Y-56162914D02*
X65294286Y-56210533D01*
X69898095Y-56554819D02*
X69898095Y-55554819D01*
X70469523Y-56554819D02*
X70040952Y-55983390D01*
X70469523Y-55554819D02*
X69898095Y-56126247D01*
X47166666Y-49004819D02*
X46833333Y-48528628D01*
X46595238Y-49004819D02*
X46595238Y-48004819D01*
X46595238Y-48004819D02*
X46976190Y-48004819D01*
X46976190Y-48004819D02*
X47071428Y-48052438D01*
X47071428Y-48052438D02*
X47119047Y-48100057D01*
X47119047Y-48100057D02*
X47166666Y-48195295D01*
X47166666Y-48195295D02*
X47166666Y-48338152D01*
X47166666Y-48338152D02*
X47119047Y-48433390D01*
X47119047Y-48433390D02*
X47071428Y-48481009D01*
X47071428Y-48481009D02*
X46976190Y-48528628D01*
X46976190Y-48528628D02*
X46595238Y-48528628D01*
X47595238Y-48481009D02*
X47928571Y-48481009D01*
X48071428Y-49004819D02*
X47595238Y-49004819D01*
X47595238Y-49004819D02*
X47595238Y-48004819D01*
X47595238Y-48004819D02*
X48071428Y-48004819D01*
X48833333Y-48481009D02*
X48500000Y-48481009D01*
X48500000Y-49004819D02*
X48500000Y-48004819D01*
X48500000Y-48004819D02*
X48976190Y-48004819D01*
X49500000Y-48004819D02*
X49500000Y-48242914D01*
X49261905Y-48147676D02*
X49500000Y-48242914D01*
X49500000Y-48242914D02*
X49738095Y-48147676D01*
X49357143Y-48433390D02*
X49500000Y-48242914D01*
X49500000Y-48242914D02*
X49642857Y-48433390D01*
X50261905Y-48004819D02*
X50261905Y-48242914D01*
X50023810Y-48147676D02*
X50261905Y-48242914D01*
X50261905Y-48242914D02*
X50500000Y-48147676D01*
X50119048Y-48433390D02*
X50261905Y-48242914D01*
X50261905Y-48242914D02*
X50404762Y-48433390D01*
X113069580Y-62626666D02*
X113117200Y-62674285D01*
X113117200Y-62674285D02*
X113164819Y-62817142D01*
X113164819Y-62817142D02*
X113164819Y-62912380D01*
X113164819Y-62912380D02*
X113117200Y-63055237D01*
X113117200Y-63055237D02*
X113021961Y-63150475D01*
X113021961Y-63150475D02*
X112926723Y-63198094D01*
X112926723Y-63198094D02*
X112736247Y-63245713D01*
X112736247Y-63245713D02*
X112593390Y-63245713D01*
X112593390Y-63245713D02*
X112402914Y-63198094D01*
X112402914Y-63198094D02*
X112307676Y-63150475D01*
X112307676Y-63150475D02*
X112212438Y-63055237D01*
X112212438Y-63055237D02*
X112164819Y-62912380D01*
X112164819Y-62912380D02*
X112164819Y-62817142D01*
X112164819Y-62817142D02*
X112212438Y-62674285D01*
X112212438Y-62674285D02*
X112260057Y-62626666D01*
X112164819Y-62293332D02*
X112164819Y-61674285D01*
X112164819Y-61674285D02*
X112545771Y-62007618D01*
X112545771Y-62007618D02*
X112545771Y-61864761D01*
X112545771Y-61864761D02*
X112593390Y-61769523D01*
X112593390Y-61769523D02*
X112641009Y-61721904D01*
X112641009Y-61721904D02*
X112736247Y-61674285D01*
X112736247Y-61674285D02*
X112974342Y-61674285D01*
X112974342Y-61674285D02*
X113069580Y-61721904D01*
X113069580Y-61721904D02*
X113117200Y-61769523D01*
X113117200Y-61769523D02*
X113164819Y-61864761D01*
X113164819Y-61864761D02*
X113164819Y-62150475D01*
X113164819Y-62150475D02*
X113117200Y-62245713D01*
X113117200Y-62245713D02*
X113069580Y-62293332D01*
X125166666Y-49004819D02*
X124833333Y-48528628D01*
X124595238Y-49004819D02*
X124595238Y-48004819D01*
X124595238Y-48004819D02*
X124976190Y-48004819D01*
X124976190Y-48004819D02*
X125071428Y-48052438D01*
X125071428Y-48052438D02*
X125119047Y-48100057D01*
X125119047Y-48100057D02*
X125166666Y-48195295D01*
X125166666Y-48195295D02*
X125166666Y-48338152D01*
X125166666Y-48338152D02*
X125119047Y-48433390D01*
X125119047Y-48433390D02*
X125071428Y-48481009D01*
X125071428Y-48481009D02*
X124976190Y-48528628D01*
X124976190Y-48528628D02*
X124595238Y-48528628D01*
X125595238Y-48481009D02*
X125928571Y-48481009D01*
X126071428Y-49004819D02*
X125595238Y-49004819D01*
X125595238Y-49004819D02*
X125595238Y-48004819D01*
X125595238Y-48004819D02*
X126071428Y-48004819D01*
X126833333Y-48481009D02*
X126500000Y-48481009D01*
X126500000Y-49004819D02*
X126500000Y-48004819D01*
X126500000Y-48004819D02*
X126976190Y-48004819D01*
X127500000Y-48004819D02*
X127500000Y-48242914D01*
X127261905Y-48147676D02*
X127500000Y-48242914D01*
X127500000Y-48242914D02*
X127738095Y-48147676D01*
X127357143Y-48433390D02*
X127500000Y-48242914D01*
X127500000Y-48242914D02*
X127642857Y-48433390D01*
X128261905Y-48004819D02*
X128261905Y-48242914D01*
X128023810Y-48147676D02*
X128261905Y-48242914D01*
X128261905Y-48242914D02*
X128500000Y-48147676D01*
X128119048Y-48433390D02*
X128261905Y-48242914D01*
X128261905Y-48242914D02*
X128404762Y-48433390D01*
D11*
%TO.C,D2*%
X61180000Y-60660000D02*
X62200000Y-60660000D01*
X62980000Y-59190000D02*
X62980000Y-62130000D01*
X63100000Y-59190000D02*
X63100000Y-62130000D01*
X63220000Y-59190000D02*
X63220000Y-62130000D01*
X68660000Y-60660000D02*
X67640000Y-60660000D01*
X62200000Y-59190000D02*
X67640000Y-59190000D01*
X67640000Y-62130000D01*
X62200000Y-62130000D01*
X62200000Y-59190000D01*
%TO.C,D5*%
X109140000Y-70117500D02*
X105860000Y-70117500D01*
X107500000Y-75717500D02*
G75*
G02*
X105860488Y-70117500I0J3040000D01*
G01*
X109139512Y-70117500D02*
G75*
G02*
X107500000Y-75717500I-1639512J-2560000D01*
G01*
X110000000Y-72677500D02*
G75*
G02*
X105000000Y-72677500I-2500000J0D01*
G01*
X105000000Y-72677500D02*
G75*
G02*
X110000000Y-72677500I2500000J0D01*
G01*
%TO.C,J2*%
X121352500Y-59880000D02*
X131392500Y-59880000D01*
X121352500Y-70120000D02*
X121352500Y-59880000D01*
X124372500Y-70120000D02*
X124372500Y-59880000D01*
X129272500Y-70120000D02*
X129272500Y-59880000D01*
X130772500Y-70120000D02*
X130772500Y-59880000D01*
X131392500Y-59880000D02*
X131392500Y-67200000D01*
X131392500Y-67800000D02*
X131392500Y-70120000D01*
X131392500Y-70120000D02*
X121352500Y-70120000D01*
X132002500Y-67940000D02*
X131392500Y-67500000D01*
X132002500Y-67060000D01*
X132002500Y-67940000D01*
G36*
X132002500Y-67940000D02*
G01*
X131392500Y-67500000D01*
X132002500Y-67060000D01*
X132002500Y-67940000D01*
G37*
%TO.C,J1*%
X46607500Y-59380000D02*
X56647500Y-59380000D01*
X46607500Y-61700000D02*
X46607500Y-59380000D01*
X46607500Y-69620000D02*
X46607500Y-62300000D01*
X47227500Y-59380000D02*
X47227500Y-69620000D01*
X48727500Y-59380000D02*
X48727500Y-69620000D01*
X53627500Y-59380000D02*
X53627500Y-69620000D01*
X56647500Y-59380000D02*
X56647500Y-69620000D01*
X56647500Y-69620000D02*
X46607500Y-69620000D01*
X46607500Y-62000000D02*
X45997500Y-62440000D01*
X45997500Y-61560000D01*
X46607500Y-62000000D01*
G36*
X46607500Y-62000000D02*
G01*
X45997500Y-62440000D01*
X45997500Y-61560000D01*
X46607500Y-62000000D01*
G37*
%TO.C,D3*%
X61260000Y-68000000D02*
X62280000Y-68000000D01*
X66700000Y-69470000D02*
X66700000Y-66530000D01*
X66820000Y-69470000D02*
X66820000Y-66530000D01*
X66940000Y-69470000D02*
X66940000Y-66530000D01*
X68740000Y-68000000D02*
X67720000Y-68000000D01*
X67720000Y-69470000D02*
X62280000Y-69470000D01*
X62280000Y-66530000D01*
X67720000Y-66530000D01*
X67720000Y-69470000D01*
%TO.C,C1*%
X72170000Y-64460000D02*
X84830000Y-64460000D01*
X72170000Y-64500000D02*
X84830000Y-64500000D01*
X72171000Y-64380000D02*
X84829000Y-64380000D01*
X72171000Y-64420000D02*
X84829000Y-64420000D01*
X72172000Y-64340000D02*
X84828000Y-64340000D01*
X72173000Y-64300000D02*
X84827000Y-64300000D01*
X72175000Y-64260000D02*
X84825000Y-64260000D01*
X72176000Y-64220000D02*
X84824000Y-64220000D01*
X72178000Y-64180000D02*
X84822000Y-64180000D01*
X72180000Y-64140000D02*
X84820000Y-64140000D01*
X72183000Y-64100000D02*
X84817000Y-64100000D01*
X72185000Y-64060000D02*
X84815000Y-64060000D01*
X72188000Y-64020000D02*
X84812000Y-64020000D01*
X72191000Y-63980000D02*
X84809000Y-63980000D01*
X72195000Y-63940000D02*
X84805000Y-63940000D01*
X72198000Y-63900000D02*
X84802000Y-63900000D01*
X72202000Y-63860000D02*
X84798000Y-63860000D01*
X72206000Y-63820000D02*
X84794000Y-63820000D01*
X72211000Y-63780000D02*
X84789000Y-63780000D01*
X72216000Y-63740000D02*
X84784000Y-63740000D01*
X72220000Y-63700000D02*
X84780000Y-63700000D01*
X72226000Y-63660000D02*
X84774000Y-63660000D01*
X72231000Y-63620000D02*
X84769000Y-63620000D01*
X72237000Y-63580000D02*
X84763000Y-63580000D01*
X72243000Y-63540000D02*
X84757000Y-63540000D01*
X72249000Y-63500000D02*
X84751000Y-63500000D01*
X72255000Y-63460000D02*
X84745000Y-63460000D01*
X72262000Y-63420000D02*
X77060000Y-63420000D01*
X72269000Y-63380000D02*
X77060000Y-63380000D01*
X72277000Y-63340000D02*
X77060000Y-63340000D01*
X72284000Y-63300000D02*
X77060000Y-63300000D01*
X72292000Y-63260000D02*
X77060000Y-63260000D01*
X72300000Y-63220000D02*
X77060000Y-63220000D01*
X72308000Y-63180000D02*
X77060000Y-63180000D01*
X72317000Y-63140000D02*
X77060000Y-63140000D01*
X72326000Y-63100000D02*
X77060000Y-63100000D01*
X72335000Y-63060000D02*
X77060000Y-63060000D01*
X72344000Y-63020000D02*
X77060000Y-63020000D01*
X72354000Y-62980000D02*
X77060000Y-62980000D01*
X72364000Y-62940000D02*
X77060000Y-62940000D01*
X72374000Y-62900000D02*
X77060000Y-62900000D01*
X72385000Y-62860000D02*
X77060000Y-62860000D01*
X72396000Y-62820000D02*
X77060000Y-62820000D01*
X72407000Y-62780000D02*
X77060000Y-62780000D01*
X72418000Y-62740000D02*
X77060000Y-62740000D01*
X72430000Y-62700000D02*
X77060000Y-62700000D01*
X72442000Y-62660000D02*
X77060000Y-62660000D01*
X72454000Y-62620000D02*
X77060000Y-62620000D01*
X72466000Y-62580000D02*
X77060000Y-62580000D01*
X72479000Y-62540000D02*
X77060000Y-62540000D01*
X72492000Y-62500000D02*
X77060000Y-62500000D01*
X72505000Y-62460000D02*
X77060000Y-62460000D01*
X72519000Y-62420000D02*
X77060000Y-62420000D01*
X72533000Y-62380000D02*
X77060000Y-62380000D01*
X72547000Y-62340000D02*
X77060000Y-62340000D01*
X72562000Y-62300000D02*
X77060000Y-62300000D01*
X72577000Y-62260000D02*
X77060000Y-62260000D01*
X72592000Y-62220000D02*
X77060000Y-62220000D01*
X72608000Y-62180000D02*
X77060000Y-62180000D01*
X72623000Y-62140000D02*
X77060000Y-62140000D01*
X72639000Y-62100000D02*
X77060000Y-62100000D01*
X72656000Y-62060000D02*
X77060000Y-62060000D01*
X72673000Y-62020000D02*
X77060000Y-62020000D01*
X72690000Y-61980000D02*
X77060000Y-61980000D01*
X72707000Y-61940000D02*
X77060000Y-61940000D01*
X72725000Y-61900000D02*
X77060000Y-61900000D01*
X72743000Y-61860000D02*
X77060000Y-61860000D01*
X72761000Y-61820000D02*
X77060000Y-61820000D01*
X72780000Y-61780000D02*
X77060000Y-61780000D01*
X72799000Y-61740000D02*
X77060000Y-61740000D01*
X72818000Y-61700000D02*
X77060000Y-61700000D01*
X72838000Y-61660000D02*
X77060000Y-61660000D01*
X72858000Y-61620000D02*
X77060000Y-61620000D01*
X72879000Y-61580000D02*
X77060000Y-61580000D01*
X72899000Y-61540000D02*
X77060000Y-61540000D01*
X72921000Y-61500000D02*
X77060000Y-61500000D01*
X72942000Y-61460000D02*
X77060000Y-61460000D01*
X72964000Y-61420000D02*
X77060000Y-61420000D01*
X72986000Y-61380000D02*
X77060000Y-61380000D01*
X73009000Y-61340000D02*
X77060000Y-61340000D01*
X73032000Y-61300000D02*
X77060000Y-61300000D01*
X73056000Y-61260000D02*
X77060000Y-61260000D01*
X73079000Y-61220000D02*
X77060000Y-61220000D01*
X73104000Y-61180000D02*
X77060000Y-61180000D01*
X73128000Y-61140000D02*
X77060000Y-61140000D01*
X73153000Y-61100000D02*
X77060000Y-61100000D01*
X73179000Y-61060000D02*
X77060000Y-61060000D01*
X73205000Y-61020000D02*
X77060000Y-61020000D01*
X73231000Y-60980000D02*
X77060000Y-60980000D01*
X73258000Y-60940000D02*
X77060000Y-60940000D01*
X73285000Y-60900000D02*
X77060000Y-60900000D01*
X73312000Y-60860000D02*
X77060000Y-60860000D01*
X73341000Y-60820000D02*
X77060000Y-60820000D01*
X73369000Y-60780000D02*
X77060000Y-60780000D01*
X73398000Y-60740000D02*
X77060000Y-60740000D01*
X73428000Y-60700000D02*
X77060000Y-60700000D01*
X73458000Y-60660000D02*
X77060000Y-60660000D01*
X73488000Y-60620000D02*
X77060000Y-60620000D01*
X73519000Y-60580000D02*
X77060000Y-60580000D01*
X73550000Y-60540000D02*
X83450000Y-60540000D01*
X73582000Y-60500000D02*
X83418000Y-60500000D01*
X73615000Y-60460000D02*
X83385000Y-60460000D01*
X73648000Y-60420000D02*
X83352000Y-60420000D01*
X73682000Y-60380000D02*
X83318000Y-60380000D01*
X73716000Y-60340000D02*
X83284000Y-60340000D01*
X73751000Y-60300000D02*
X83249000Y-60300000D01*
X73786000Y-60260000D02*
X83214000Y-60260000D01*
X73822000Y-60220000D02*
X83178000Y-60220000D01*
X73859000Y-60180000D02*
X83141000Y-60180000D01*
X73896000Y-60140000D02*
X83104000Y-60140000D01*
X73934000Y-60100000D02*
X83066000Y-60100000D01*
X73972000Y-60060000D02*
X83028000Y-60060000D01*
X74012000Y-60020000D02*
X82988000Y-60020000D01*
X74052000Y-59980000D02*
X82948000Y-59980000D01*
X74092000Y-59940000D02*
X82908000Y-59940000D01*
X74134000Y-59900000D02*
X82866000Y-59900000D01*
X74176000Y-59860000D02*
X82824000Y-59860000D01*
X74219000Y-59820000D02*
X82781000Y-59820000D01*
X74262000Y-59780000D02*
X82738000Y-59780000D01*
X74300000Y-70692082D02*
X75550000Y-70692082D01*
X74307000Y-59740000D02*
X82693000Y-59740000D01*
X74352000Y-59700000D02*
X82648000Y-59700000D01*
X74399000Y-59660000D02*
X82601000Y-59660000D01*
X74446000Y-59620000D02*
X82554000Y-59620000D01*
X74494000Y-59580000D02*
X82506000Y-59580000D01*
X74543000Y-59540000D02*
X82457000Y-59540000D01*
X74593000Y-59500000D02*
X82407000Y-59500000D01*
X74644000Y-59460000D02*
X82356000Y-59460000D01*
X74697000Y-59420000D02*
X82303000Y-59420000D01*
X74750000Y-59380000D02*
X82250000Y-59380000D01*
X74805000Y-59340000D02*
X82195000Y-59340000D01*
X74861000Y-59300000D02*
X82139000Y-59300000D01*
X74918000Y-59260000D02*
X82082000Y-59260000D01*
X74925000Y-71317082D02*
X74925000Y-70067082D01*
X74977000Y-59220000D02*
X82023000Y-59220000D01*
X75037000Y-59180000D02*
X81963000Y-59180000D01*
X75098000Y-59140000D02*
X81902000Y-59140000D01*
X75161000Y-59100000D02*
X81839000Y-59100000D01*
X75226000Y-59060000D02*
X81774000Y-59060000D01*
X75292000Y-59020000D02*
X81708000Y-59020000D01*
X75361000Y-58980000D02*
X81639000Y-58980000D01*
X75431000Y-58940000D02*
X81569000Y-58940000D01*
X75504000Y-58900000D02*
X81496000Y-58900000D01*
X75579000Y-58860000D02*
X81421000Y-58860000D01*
X75657000Y-58820000D02*
X81343000Y-58820000D01*
X75737000Y-58780000D02*
X81263000Y-58780000D01*
X75820000Y-58740000D02*
X81180000Y-58740000D01*
X75906000Y-58700000D02*
X81094000Y-58700000D01*
X75996000Y-58660000D02*
X81004000Y-58660000D01*
X76090000Y-58620000D02*
X80910000Y-58620000D01*
X76188000Y-58580000D02*
X80812000Y-58580000D01*
X76292000Y-58540000D02*
X80708000Y-58540000D01*
X76401000Y-58500000D02*
X80599000Y-58500000D01*
X76516000Y-58460000D02*
X80484000Y-58460000D01*
X76640000Y-58420000D02*
X80360000Y-58420000D01*
X76773000Y-58380000D02*
X80227000Y-58380000D01*
X76918000Y-58340000D02*
X80082000Y-58340000D01*
X77078000Y-58300000D02*
X79922000Y-58300000D01*
X77260000Y-58260000D02*
X79740000Y-58260000D01*
X77473000Y-58220000D02*
X79527000Y-58220000D01*
X77743000Y-58180000D02*
X79257000Y-58180000D01*
X78183000Y-58140000D02*
X78817000Y-58140000D01*
X79940000Y-60580000D02*
X83481000Y-60580000D01*
X79940000Y-60620000D02*
X83512000Y-60620000D01*
X79940000Y-60660000D02*
X83542000Y-60660000D01*
X79940000Y-60700000D02*
X83572000Y-60700000D01*
X79940000Y-60740000D02*
X83602000Y-60740000D01*
X79940000Y-60780000D02*
X83631000Y-60780000D01*
X79940000Y-60820000D02*
X83659000Y-60820000D01*
X79940000Y-60860000D02*
X83688000Y-60860000D01*
X79940000Y-60900000D02*
X83715000Y-60900000D01*
X79940000Y-60940000D02*
X83742000Y-60940000D01*
X79940000Y-60980000D02*
X83769000Y-60980000D01*
X79940000Y-61020000D02*
X83795000Y-61020000D01*
X79940000Y-61060000D02*
X83821000Y-61060000D01*
X79940000Y-61100000D02*
X83847000Y-61100000D01*
X79940000Y-61140000D02*
X83872000Y-61140000D01*
X79940000Y-61180000D02*
X83896000Y-61180000D01*
X79940000Y-61220000D02*
X83921000Y-61220000D01*
X79940000Y-61260000D02*
X83944000Y-61260000D01*
X79940000Y-61300000D02*
X83968000Y-61300000D01*
X79940000Y-61340000D02*
X83991000Y-61340000D01*
X79940000Y-61380000D02*
X84014000Y-61380000D01*
X79940000Y-61420000D02*
X84036000Y-61420000D01*
X79940000Y-61460000D02*
X84058000Y-61460000D01*
X79940000Y-61500000D02*
X84079000Y-61500000D01*
X79940000Y-61540000D02*
X84101000Y-61540000D01*
X79940000Y-61580000D02*
X84121000Y-61580000D01*
X79940000Y-61620000D02*
X84142000Y-61620000D01*
X79940000Y-61660000D02*
X84162000Y-61660000D01*
X79940000Y-61700000D02*
X84182000Y-61700000D01*
X79940000Y-61740000D02*
X84201000Y-61740000D01*
X79940000Y-61780000D02*
X84220000Y-61780000D01*
X79940000Y-61820000D02*
X84239000Y-61820000D01*
X79940000Y-61860000D02*
X84257000Y-61860000D01*
X79940000Y-61900000D02*
X84275000Y-61900000D01*
X79940000Y-61940000D02*
X84293000Y-61940000D01*
X79940000Y-61980000D02*
X84310000Y-61980000D01*
X79940000Y-62020000D02*
X84327000Y-62020000D01*
X79940000Y-62060000D02*
X84344000Y-62060000D01*
X79940000Y-62100000D02*
X84361000Y-62100000D01*
X79940000Y-62140000D02*
X84377000Y-62140000D01*
X79940000Y-62180000D02*
X84392000Y-62180000D01*
X79940000Y-62220000D02*
X84408000Y-62220000D01*
X79940000Y-62260000D02*
X84423000Y-62260000D01*
X79940000Y-62300000D02*
X84438000Y-62300000D01*
X79940000Y-62340000D02*
X84453000Y-62340000D01*
X79940000Y-62380000D02*
X84467000Y-62380000D01*
X79940000Y-62420000D02*
X84481000Y-62420000D01*
X79940000Y-62460000D02*
X84495000Y-62460000D01*
X79940000Y-62500000D02*
X84508000Y-62500000D01*
X79940000Y-62540000D02*
X84521000Y-62540000D01*
X79940000Y-62580000D02*
X84534000Y-62580000D01*
X79940000Y-62620000D02*
X84546000Y-62620000D01*
X79940000Y-62660000D02*
X84558000Y-62660000D01*
X79940000Y-62700000D02*
X84570000Y-62700000D01*
X79940000Y-62740000D02*
X84582000Y-62740000D01*
X79940000Y-62780000D02*
X84593000Y-62780000D01*
X79940000Y-62820000D02*
X84604000Y-62820000D01*
X79940000Y-62860000D02*
X84615000Y-62860000D01*
X79940000Y-62900000D02*
X84626000Y-62900000D01*
X79940000Y-62940000D02*
X84636000Y-62940000D01*
X79940000Y-62980000D02*
X84646000Y-62980000D01*
X79940000Y-63020000D02*
X84656000Y-63020000D01*
X79940000Y-63060000D02*
X84665000Y-63060000D01*
X79940000Y-63100000D02*
X84674000Y-63100000D01*
X79940000Y-63140000D02*
X84683000Y-63140000D01*
X79940000Y-63180000D02*
X84692000Y-63180000D01*
X79940000Y-63220000D02*
X84700000Y-63220000D01*
X79940000Y-63260000D02*
X84708000Y-63260000D01*
X79940000Y-63300000D02*
X84716000Y-63300000D01*
X79940000Y-63340000D02*
X84723000Y-63340000D01*
X79940000Y-63380000D02*
X84731000Y-63380000D01*
X79940000Y-63420000D02*
X84738000Y-63420000D01*
X84870000Y-64500000D02*
G75*
G02*
X72130000Y-64500000I-6370000J0D01*
G01*
X72130000Y-64500000D02*
G75*
G02*
X84870000Y-64500000I6370000J0D01*
G01*
%TO.C,R1*%
X116000000Y-55780000D02*
X116000000Y-59430000D01*
X116000000Y-73220000D02*
X116000000Y-69570000D01*
X114080000Y-69570000D02*
X117920000Y-69570000D01*
X117920000Y-59430000D01*
X114080000Y-59430000D01*
X114080000Y-69570000D01*
%TO.C,U1*%
X95240000Y-58930000D02*
X99860000Y-58930000D01*
X95240000Y-62190000D02*
X96620000Y-62190000D01*
X95240000Y-65890000D02*
X96620000Y-65890000D01*
X95240000Y-69150000D02*
X95240000Y-58930000D01*
X96620000Y-69150000D02*
X96620000Y-58930000D01*
X99860000Y-58930000D02*
X99860000Y-69150000D01*
X99860000Y-69150000D02*
X95240000Y-69150000D01*
%TO.C,D4*%
X61260000Y-74500000D02*
X62280000Y-74500000D01*
X63060000Y-73030000D02*
X63060000Y-75970000D01*
X63180000Y-73030000D02*
X63180000Y-75970000D01*
X63300000Y-73030000D02*
X63300000Y-75970000D01*
X68740000Y-74500000D02*
X67720000Y-74500000D01*
X62280000Y-73030000D02*
X67720000Y-73030000D01*
X67720000Y-75970000D01*
X62280000Y-75970000D01*
X62280000Y-73030000D01*
%TO.C,C2*%
X88630000Y-62030000D02*
X88960000Y-62030000D01*
X88630000Y-66970000D02*
X88630000Y-62030000D01*
X88960000Y-66970000D02*
X88630000Y-66970000D01*
X91040000Y-62030000D02*
X91370000Y-62030000D01*
X91370000Y-62030000D02*
X91370000Y-66970000D01*
X91370000Y-66970000D02*
X91040000Y-66970000D01*
%TO.C,D1*%
X61340000Y-54000000D02*
X62360000Y-54000000D01*
X66780000Y-55470000D02*
X66780000Y-52530000D01*
X66900000Y-55470000D02*
X66900000Y-52530000D01*
X67020000Y-55470000D02*
X67020000Y-52530000D01*
X68820000Y-54000000D02*
X67800000Y-54000000D01*
X67800000Y-55470000D02*
X62360000Y-55470000D01*
X62360000Y-52530000D01*
X67800000Y-52530000D01*
X67800000Y-55470000D01*
%TO.C,C3*%
X106420000Y-63940000D02*
X103655000Y-63940000D01*
X106420000Y-63980000D02*
X103671000Y-63980000D01*
X106420000Y-64020000D02*
X103687000Y-64020000D01*
X106420000Y-64060000D02*
X103703000Y-64060000D01*
X106420000Y-64100000D02*
X103720000Y-64100000D01*
X106420000Y-64140000D02*
X103738000Y-64140000D01*
X106420000Y-64180000D02*
X103756000Y-64180000D01*
X106420000Y-64220000D02*
X103775000Y-64220000D01*
X106420000Y-64260000D02*
X103794000Y-64260000D01*
X106420000Y-64300000D02*
X103814000Y-64300000D01*
X106420000Y-64340000D02*
X103834000Y-64340000D01*
X106420000Y-64380000D02*
X103855000Y-64380000D01*
X106420000Y-64420000D02*
X103876000Y-64420000D01*
X106420000Y-64460000D02*
X103898000Y-64460000D01*
X106420000Y-64500000D02*
X103921000Y-64500000D01*
X106420000Y-64540000D02*
X103944000Y-64540000D01*
X106420000Y-64580000D02*
X103967000Y-64580000D01*
X106420000Y-64620000D02*
X103992000Y-64620000D01*
X106420000Y-64660000D02*
X104017000Y-64660000D01*
X106420000Y-64700000D02*
X104042000Y-64700000D01*
X106420000Y-64740000D02*
X104068000Y-64740000D01*
X106420000Y-64780000D02*
X104095000Y-64780000D01*
X106420000Y-64820000D02*
X104123000Y-64820000D01*
X106420000Y-64860000D02*
X104151000Y-64860000D01*
X106420000Y-64900000D02*
X104180000Y-64900000D01*
X106420000Y-64940000D02*
X104210000Y-64940000D01*
X106420000Y-64980000D02*
X104241000Y-64980000D01*
X106420000Y-65020000D02*
X104272000Y-65020000D01*
X106420000Y-65060000D02*
X104304000Y-65060000D01*
X106420000Y-65100000D02*
X104337000Y-65100000D01*
X106420000Y-65140000D02*
X104371000Y-65140000D01*
X106420000Y-65180000D02*
X104405000Y-65180000D01*
X106420000Y-65220000D02*
X104441000Y-65220000D01*
X106420000Y-65260000D02*
X104478000Y-65260000D01*
X106420000Y-65300000D02*
X104515000Y-65300000D01*
X106420000Y-65340000D02*
X104554000Y-65340000D01*
X106420000Y-65380000D02*
X104593000Y-65380000D01*
X106420000Y-65420000D02*
X104634000Y-65420000D01*
X106420000Y-65460000D02*
X104676000Y-65460000D01*
X106420000Y-65500000D02*
X104719000Y-65500000D01*
X106420000Y-65540000D02*
X104764000Y-65540000D01*
X106420000Y-65580000D02*
X104809000Y-65580000D01*
X106420000Y-65620000D02*
X104856000Y-65620000D01*
X106420000Y-65660000D02*
X104905000Y-65660000D01*
X106420000Y-65700000D02*
X104955000Y-65700000D01*
X106420000Y-65740000D02*
X105007000Y-65740000D01*
X106420000Y-65780000D02*
X105060000Y-65780000D01*
X106420000Y-65820000D02*
X105116000Y-65820000D01*
X106420000Y-65860000D02*
X105173000Y-65860000D01*
X106420000Y-65900000D02*
X105233000Y-65900000D01*
X106420000Y-65940000D02*
X105295000Y-65940000D01*
X106420000Y-65980000D02*
X105359000Y-65980000D01*
X107993000Y-66540000D02*
X106927000Y-66540000D01*
X108228000Y-66500000D02*
X106692000Y-66500000D01*
X108407000Y-66460000D02*
X106513000Y-66460000D01*
X108557000Y-66420000D02*
X106363000Y-66420000D01*
X108688000Y-66380000D02*
X106232000Y-66380000D01*
X108806000Y-66340000D02*
X106114000Y-66340000D01*
X108913000Y-66300000D02*
X106007000Y-66300000D01*
X109012000Y-66260000D02*
X105908000Y-66260000D01*
X109104000Y-66220000D02*
X105816000Y-66220000D01*
X109191000Y-66180000D02*
X105729000Y-66180000D01*
X109273000Y-66140000D02*
X105647000Y-66140000D01*
X109350000Y-66100000D02*
X105570000Y-66100000D01*
X109424000Y-66060000D02*
X105496000Y-66060000D01*
X109494000Y-66020000D02*
X105426000Y-66020000D01*
X109561000Y-65980000D02*
X108500000Y-65980000D01*
X109625000Y-65940000D02*
X108500000Y-65940000D01*
X109687000Y-65900000D02*
X108500000Y-65900000D01*
X109747000Y-65860000D02*
X108500000Y-65860000D01*
X109775000Y-58050302D02*
X109775000Y-58850302D01*
X109804000Y-65820000D02*
X108500000Y-65820000D01*
X109860000Y-65780000D02*
X108500000Y-65780000D01*
X109913000Y-65740000D02*
X108500000Y-65740000D01*
X109965000Y-65700000D02*
X108500000Y-65700000D01*
X110015000Y-65660000D02*
X108500000Y-65660000D01*
X110064000Y-65620000D02*
X108500000Y-65620000D01*
X110111000Y-65580000D02*
X108500000Y-65580000D01*
X110156000Y-65540000D02*
X108500000Y-65540000D01*
X110175000Y-58450302D02*
X109375000Y-58450302D01*
X110201000Y-65500000D02*
X108500000Y-65500000D01*
X110244000Y-65460000D02*
X108500000Y-65460000D01*
X110286000Y-65420000D02*
X108500000Y-65420000D01*
X110327000Y-65380000D02*
X108500000Y-65380000D01*
X110366000Y-65340000D02*
X108500000Y-65340000D01*
X110405000Y-65300000D02*
X108500000Y-65300000D01*
X110442000Y-65260000D02*
X108500000Y-65260000D01*
X110479000Y-65220000D02*
X108500000Y-65220000D01*
X110515000Y-65180000D02*
X108500000Y-65180000D01*
X110549000Y-65140000D02*
X108500000Y-65140000D01*
X110583000Y-65100000D02*
X108500000Y-65100000D01*
X110616000Y-65060000D02*
X108500000Y-65060000D01*
X110648000Y-65020000D02*
X108500000Y-65020000D01*
X110679000Y-64980000D02*
X108500000Y-64980000D01*
X110710000Y-64940000D02*
X108500000Y-64940000D01*
X110740000Y-64900000D02*
X108500000Y-64900000D01*
X110769000Y-64860000D02*
X108500000Y-64860000D01*
X110797000Y-64820000D02*
X108500000Y-64820000D01*
X110825000Y-64780000D02*
X108500000Y-64780000D01*
X110852000Y-64740000D02*
X108500000Y-64740000D01*
X110878000Y-64700000D02*
X108500000Y-64700000D01*
X110903000Y-64660000D02*
X108500000Y-64660000D01*
X110928000Y-64620000D02*
X108500000Y-64620000D01*
X110953000Y-64580000D02*
X108500000Y-64580000D01*
X110976000Y-64540000D02*
X108500000Y-64540000D01*
X110999000Y-64500000D02*
X108500000Y-64500000D01*
X111022000Y-64460000D02*
X108500000Y-64460000D01*
X111044000Y-64420000D02*
X108500000Y-64420000D01*
X111065000Y-64380000D02*
X108500000Y-64380000D01*
X111086000Y-64340000D02*
X108500000Y-64340000D01*
X111106000Y-64300000D02*
X108500000Y-64300000D01*
X111126000Y-64260000D02*
X108500000Y-64260000D01*
X111145000Y-64220000D02*
X108500000Y-64220000D01*
X111164000Y-64180000D02*
X108500000Y-64180000D01*
X111182000Y-64140000D02*
X108500000Y-64140000D01*
X111200000Y-64100000D02*
X108500000Y-64100000D01*
X111217000Y-64060000D02*
X108500000Y-64060000D01*
X111233000Y-64020000D02*
X108500000Y-64020000D01*
X111249000Y-63980000D02*
X108500000Y-63980000D01*
X111265000Y-63940000D02*
X108500000Y-63940000D01*
X111280000Y-63900000D02*
X103640000Y-63900000D01*
X111295000Y-63860000D02*
X103625000Y-63860000D01*
X111309000Y-63820000D02*
X103611000Y-63820000D01*
X111323000Y-63780000D02*
X103597000Y-63780000D01*
X111336000Y-63740000D02*
X103584000Y-63740000D01*
X111349000Y-63700000D02*
X103571000Y-63700000D01*
X111361000Y-63660000D02*
X103559000Y-63660000D01*
X111373000Y-63620000D02*
X103547000Y-63620000D01*
X111385000Y-63580000D02*
X103535000Y-63580000D01*
X111396000Y-63540000D02*
X103524000Y-63540000D01*
X111407000Y-63500000D02*
X103513000Y-63500000D01*
X111417000Y-63460000D02*
X103503000Y-63460000D01*
X111427000Y-63420000D02*
X103493000Y-63420000D01*
X111436000Y-63380000D02*
X103484000Y-63380000D01*
X111445000Y-63340000D02*
X103475000Y-63340000D01*
X111453000Y-63300000D02*
X103467000Y-63300000D01*
X111462000Y-63260000D02*
X103458000Y-63260000D01*
X111469000Y-63220000D02*
X103451000Y-63220000D01*
X111477000Y-63180000D02*
X103443000Y-63180000D01*
X111483000Y-63140000D02*
X103437000Y-63140000D01*
X111490000Y-63100000D02*
X103430000Y-63100000D01*
X111496000Y-63060000D02*
X103424000Y-63060000D01*
X111502000Y-63020000D02*
X103418000Y-63020000D01*
X111507000Y-62980000D02*
X103413000Y-62980000D01*
X111512000Y-62940000D02*
X103408000Y-62940000D01*
X111516000Y-62900000D02*
X103404000Y-62900000D01*
X111521000Y-62860000D02*
X103399000Y-62860000D01*
X111524000Y-62820000D02*
X103396000Y-62820000D01*
X111528000Y-62780000D02*
X103392000Y-62780000D01*
X111530000Y-62740000D02*
X103390000Y-62740000D01*
X111533000Y-62700000D02*
X103387000Y-62700000D01*
X111535000Y-62660000D02*
X103385000Y-62660000D01*
X111537000Y-62620000D02*
X103383000Y-62620000D01*
X111538000Y-62580000D02*
X103382000Y-62580000D01*
X111539000Y-62540000D02*
X103381000Y-62540000D01*
X111540000Y-62460000D02*
X103380000Y-62460000D01*
X111540000Y-62500000D02*
X103380000Y-62500000D01*
X111580000Y-62460000D02*
G75*
G02*
X103340000Y-62460000I-4120000J0D01*
G01*
X103340000Y-62460000D02*
G75*
G02*
X111580000Y-62460000I4120000J0D01*
G01*
%TD*%
M02*
